<?xml version="1.0" encoding="utf-8"?>
<!-- Generator: Adobe Illustrator 23.0.1, SVG Export Plug-In . SVG Version: 6.00 Build 0)  -->
<svg version="1.1" id="Capa_1" xmlns="http://www.w3.org/2000/svg" xmlns:xlink="http://www.w3.org/1999/xlink" x="0px" y="0px"
	 viewBox="0 0 194.12 194.12" style="enable-background:new 0 0 194.12 194.12;" xml:space="preserve">
<style type="text/css">
	.st0{opacity:0.8;}
	.st1{fill:#CBE7E7;}
	.st2{fill:#D1EAEA;}
	.st3{fill:#FFF2BA;}
</style>
<g>
	<g class="st0">
		<path class="st1" d="M143.29,125.99c-0.82-14.64-5.89-24.44-10.86-34.98c-2.97-6.3-6.02-12.72-10.73-17.83
			c-6.97-7.58-17.09-11.53-26.81-11.74c-9.72-0.21-19.04,3.06-27.11,8.04C62.4,72.8,57.35,77.1,54.76,83.04
			c-5.68,13.03,1.91,28.82,9.27,42c2.93,5.24,5.86,10.49,8.79,15.73c3.04,5.45,6.14,10.97,10.39,15.52
			c10.89,11.67,28.92,14.93,41.96,8.11S145.5,141.58,143.29,125.99"/>
		<g>
			<g>
				<g>
					<g>
						<polygon class="st2" points="141.16,126.29 141.06,126.45 141.43,126.76 						"/>
						<path class="st2" d="M142.15,128.57c0.05-0.07,0.16-0.05,0.21-0.12l-1.09-1.29C140.79,127.81,142.46,128.12,142.15,128.57z"/>
						<path class="st2" d="M142.09,128.98c-0.2,0.56,0.25,0.76,0.4,0.88C142.14,129.69,142.58,128.83,142.09,128.98z"/>
						<path class="st2" d="M117.88,165.73c0.05-0.01,0.11-0.04,0.16-0.07C117.95,165.67,117.9,165.7,117.88,165.73z"/>
						<path class="st2" d="M105.27,167.8l-0.18,0.33c1.25-0.09,2.54-0.07,3.85,0.09c0.66,0.03,1.32,0.05,1.98,0.07
							c0.33,0,0.66,0.01,0.99-0.01c0.33-0.04,0.65-0.09,0.97-0.15l-0.17,0.14c3.29-0.14,6.42-0.92,9.29-2.22
							c2.88-1.28,5.49-3.02,7.91-5.1c-0.05,0.09-0.01,0.2-0.07,0.3c0.16-0.3,0.28-0.7,0.56-0.89c0.12,0,0.03,0.19-0.03,0.29
							c1.48-0.39,2.66-2.96,3.54-3.27c0.2-0.33,0.12-0.62-0.15-0.59c1.61-1.88,2.98-4.07,4.18-6.32c1.11-2.31,2.04-4.72,2.55-7.16
							c0.15-0.2,0.32-0.2,0.5-0.07c0.37-4.34,1.29-8.61,1.32-12.99c-0.26-0.16-0.25,0.45-0.53,0.03c-0.24,1.37,0.62,2.54,0.11,3.78
							l-0.24-0.18c-0.21,0.89,0.63,0.23,0.22,1.15c-0.25,0.35-0.3-0.12-0.34,0.05c-0.09,1.94-0.63,3.87-0.51,5.78
							c-0.64,0.3-0.52,2.03-1.27,2.54c0.04,0.54-0.18,0.99,0.09,1.29c-1.29,3.15-2.83,6.23-4.8,9.08c-1.96,2.84-4.36,5.43-7.22,7.41
							c-0.26,0.34-0.55,0.66-0.87,0.96c-0.34,0.27-0.7,0.52-1.08,0.76c-0.38,0.24-0.77,0.47-1.18,0.68
							c-0.43,0.18-0.86,0.35-1.3,0.52c-0.44,0.16-0.88,0.35-1.34,0.48c-0.46,0.13-0.92,0.26-1.39,0.39
							c-0.91,0.31-1.86,0.51-2.78,0.84c-0.03-0.03-0.04-0.07-0.02-0.1c-0.57,0.31-1.33,0.52-2.13,0.7c-0.4,0.09-0.81,0.17-1.21,0.24
							c-0.41,0.04-0.81,0.05-1.19,0.05l-1.26,0.54c-4.65-0.2-9.25-0.98-13.66-2.46c-4.39-1.52-8.55-3.87-11.93-7.05
							c-3.88-3.57-6.49-7.87-9.02-12.17c-2.5-4.33-5.05-8.73-8.24-13.01c0.09-0.04,0.1-0.14,0.27,0.08
							c-1.67-2.57-2.72-5.19-4.31-7.61L65.3,125c-4.24-5.84-6.92-13.08-9.89-19.27c-1.24-3.98-2.26-8.35-2.29-12.85
							c0-4.47,1.01-9.07,3.33-12.87l0.16,0.13c1.71-3.1,4.38-5.5,7.22-7.47c2.85-1.97,5.92-3.58,8.98-5.32
							c3.33-1.4,6.66-3.02,10.22-4.22c3.54-1.2,7.33-1.98,11.02-1.64c2.26,0.49,4.85,0.43,7.47,0.66c2.6,0.22,5.21,0.74,7.02,2.02
							c3.8,2.34,7.3,4.66,10.56,7.4c3.27,2.69,6.2,5.94,8.81,9.54c1.8,3.67,3.68,7.25,5.54,10.83c1.85,3.56,3.65,7.16,4.62,11.02
							c2.08,3.22,1.94,7.64,3.05,11.55l0.21-0.2c-0.39,1.59,1.73,3.03,0.79,4.15l-0.07-0.15c-0.45,0.86,1.61,1.6,1.01,2.18l0.3,0.09
							c0.2,0.94-0.3,0.16-0.33,0.9c0.07,0.27,0.52,0.04,0.43,0.64c-0.57,0.13-0.44,0.7-0.33,1.27c0.09,0.57,0.16,1.14-0.49,1.22
							c-0.04-0.51-0.44,0.84-0.8-0.29c-0.11,0.34,0.07,1.89,0.61,1.72c0.59,0.1,1.14,0.7,1.53-0.3l-0.44-0.17
							c0.4-0.35,0.19-0.26,0.51-0.4c-0.05-1.28,0.58-1.51,0.74-2.46c-0.01,0.01-0.02,0.02-0.05,0.01c-0.58-0.58-0.38-1.48-0.36-1.99
							l0.21-0.23c0.45-0.38-1.19-1.32-0.28-1.06c-0.59-2.58-1.2-5.54-2.02-8.37c-0.42-0.31-0.62-2.16-1.03-1.36
							c0.49-0.91-0.05-3.05-0.36-3.81c0.07,0.01,0.16,0.01,0.18,0.14c0.32-1.81-1.44-1.45-0.94-3.23c-0.81,0.08-0.79-2.58-1.99-2.96
							c0.09-0.24,0.21-0.36,0.37-0.35c-1.04-2.43-2.02-5.17-2.94-7.18c-1.44-1.4-1.66-4.26-3.25-5.32c-0.4-1.3-1.02-3.47-2.29-4.97
							l0.19,0.11c-1.06-1.88-2.54-4.2-3.9-5.08c0.41-1.06-0.3-1.74-0.65-2.68c-0.62-0.46-1.37-1.29-2.25-2.15
							c-0.88-0.85-1.85-1.76-2.82-2.36c0.04-0.57-1.52-1.08-1.22-1.63c-2.84-1.56-5.9-3.21-9.11-4.7c-3.21-1.49-6.59-2.79-9.87-3.77
							l0.1-0.03c-0.93,0.21-2.02,0.81-2.92,1.19c-0.08-0.06-0.06-0.16,0.12-0.14c-0.6-0.01-1.17-0.17-1.75-0.31
							c-0.58-0.15-1.16-0.31-1.77-0.24c0.01-0.1,0.01-0.1,0.21-0.2c-1.13,0.26-2.38-0.47-3.7,0.11L90.61,60l-0.83,0.3
							c0-0.21,0-0.52,0.47-0.49c-5.26,0.35-10.45,1.96-15.22,4.26c-2.39,1.15-4.7,2.46-6.93,3.88c-2.23,1.41-4.41,2.93-6.48,4.61
							l0.18-0.4c-0.46,0.53-0.9,1.07-1.34,1.62c-0.06-0.08-0.02-0.19,0.02-0.29c-2.21,1.54-3.63,4.03-5.05,6.18
							c-0.08-0.06-0.04-0.51-0.33-0.25c-0.28,0.97-0.79,1.57-1.19,2.12c-0.39,0.55-0.65,1.05-0.26,1.73
							c-0.08,0.06-0.35,0.03-0.36-0.2c-0.2,0.65-0.39,1.31-0.59,1.96c-0.16,0.66-0.27,1.34-0.41,2c-0.16,0.66-0.23,1.34-0.3,2.02
							c-0.06,0.68-0.2,1.35-0.19,2.03c-0.2,2.71,0.04,5.41,0.36,8.06c0.93,2.08,1.47,4.31,2.21,6.53c0.69,2.22,1.54,4.42,2.8,6.33
							l-0.2,0.06c1.5,2.53,2.78,5.21,4.11,7.93c1.33,2.71,2.68,5.45,4.21,8.04c1.14,2.22,2.18,3.57,3.42,5.76l-0.2,0.18
							c2.94,3.2,3.52,8.2,6.69,11.49l-0.46-0.08c0.82,0.32,1.2,2.4,1.87,1.69l0.16,0.81c1.32,0.94,1.93,2.14,2.61,3.44
							c0.67,1.29,1.41,2.69,2.91,3.81l-0.33-0.04c0.76,0.64,1.64,1.36,2.02,2c-0.1-0.06-0.11,0.03-0.32-0.1
							c0.39,0.69,0.88,1.34,1.45,1.91c0.6,0.54,1.26,1.04,1.94,1.52c1.41,0.89,2.89,1.67,4.29,2.47l-0.53,0.17
							c0.8,0.2,1.76,0.76,2.82,1.27c0.53,0.26,1.05,0.57,1.59,0.8c0.54,0.22,1.08,0.42,1.58,0.55l-0.19,0.14l1.07,0.13l-0.11,0.38
							c0.64,0.22,1.29,0.39,1.92,0.56l0.96,0.24l0.97,0.16l1.92,0.31C103.97,167.65,104.62,167.72,105.27,167.8z"/>
						<path class="st2" d="M130.38,160.65c-0.01,0-0.02,0.01-0.03,0.01C130.31,160.74,130.33,160.71,130.38,160.65z"/>
						<path class="st2" d="M144.81,122.37c-0.01,0.13-0.02,0.23-0.04,0.34C144.85,122.68,144.81,122.48,144.81,122.37z"/>
					</g>
				</g>
			</g>
		</g>
	</g>
	<g>
		<g>
			<g>
				<path d="M139.47,107.59c-1.95-1.46,0.25-10.34,2.52-9.45c1.71,0.67,1.61,4.16,1.14,5.57c-0.54,1.62-2.95,3.62-4.67,4.15
					c-1.33,0.4-1.03,1.53,0.32,1.12c1.43-0.43,2.62-1.41,3.88-2.2c1.12-0.7,1.96-1.56,2.49-2.79c0.89-2.07,0.89-7.02-2.2-7.29
					c-2.46-0.22-4.3,1.34-5.23,3.47c-0.83,1.89-2.47,6.74-0.33,8.34C138.03,108.99,140.09,108.06,139.47,107.59L139.47,107.59z"/>
			</g>
		</g>
		<g>
			<g>
				<path d="M93.38,26.37c-0.05,0.3-0.11,0.59-0.16,0.89c0.67-0.24,1.34-0.48,2.01-0.72c-0.17-0.34-0.35-0.68-0.52-1.01
					c-0.11-0.77-2.28-0.18-2.24,0.64c1.37,27.19,3.01,54.37,5.93,81.45c1.44,13.36,3.22,26.69,5.35,39.96
					c2.11,13.11,5.25,25.79,8.37,38.67c0.19,0.77,2.44,0.16,2.24-0.64c-3.12-12.89-6.26-25.56-8.37-38.67
					c-2.13-13.27-3.91-26.59-5.35-39.96c-2.92-27.07-4.57-54.26-5.93-81.45c-0.75,0.21-1.49,0.43-2.24,0.64
					c0.16,1.12,0.08,0.92,0.99,1.49c0.5,0.31,1.89-0.08,2.01-0.72c0.05-0.3,0.11-0.59,0.16-0.89
					C95.78,25.19,93.52,25.59,93.38,26.37L93.38,26.37z"/>
			</g>
		</g>
		<g>
			<g>
				<path d="M96.74,68.96c6.2-2.46,11.18-9.28,14.65-14.73c2.45-3.84,4.36-8.06,6.35-12.14c1.62-3.32,3.49-6.75,4.05-10.45
					c-0.75,0.11-1.5,0.22-2.25,0.32c0,0.06,0,0.12,0,0.18c-0.01,0.92,2.24,0.42,2.25-0.32c0-0.06,0-0.12,0-0.18
					c0.01-0.93-2.13-0.42-2.25,0.32c-1.03,6.79-5.56,14.01-8.87,19.95c-3.22,5.77-8.47,13.6-14.84,16.13
					C94.37,68.63,95.72,69.36,96.74,68.96L96.74,68.96z"/>
			</g>
		</g>
		<g>
			<g>
				<path d="M96.19,55.44c-3.17-1.19-5.89-2.48-8.2-5.05c-1.26-1.4-2.51-2.8-3.75-4.21c-0.91-1.03-2.57-2.38-2.84-3.75
					c-0.15-0.76-2.4-0.18-2.24,0.64c0.24,1.25,1.05,1.84,1.89,2.74c1.67,1.77,3.23,3.68,4.86,5.49c2.42,2.69,5.17,4,8.5,5.25
					C95.09,56.81,97.12,55.79,96.19,55.44L96.19,55.44z"/>
			</g>
		</g>
		<g>
			<g>
				<path d="M97.78,85.37c-7.54,0-14.08-7.89-18.93-12.86c-2.53-2.6-4.41-5.58-6.48-8.54c-1.82-2.61-5.46-5.83-6.02-8.99
					c-0.14-0.76-2.39-0.19-2.24,0.64c0.58,3.26,3.94,6.09,5.81,8.72c2.78,3.91,5.3,7.61,8.77,10.97
					c5.03,4.86,10.67,11.35,18.25,11.35C97.78,86.66,99.3,85.37,97.78,85.37L97.78,85.37z"/>
			</g>
		</g>
		<g>
			<g>
				<path d="M99.63,95.37c4.09-0.84,7.3-5.68,9.73-8.68c4.09-5.06,7.37-11.1,7.85-17.71c0.07-0.9-2.19-0.44-2.25,0.32
					c-0.36,4.98-2.5,10.05-5.27,14.13c-1.6,2.36-3.46,4.55-5.35,6.68c-0.99,1.11-2.98,3.7-4.42,4
					C98.86,94.33,98.09,95.68,99.63,95.37L99.63,95.37z"/>
			</g>
		</g>
		<g>
			<g>
				<path d="M101.86,116.36c-7.85-0.32-13.7-7.43-18.02-13.28c-2.42-3.28-4.57-6.75-6.65-10.25c-1.74-2.94-3.07-6.31-5.13-9.03
					c-0.46-0.61-2.62,0.2-2.07,0.92c2.54,3.36,4.26,7.64,6.46,11.25c2.38,3.92,4.92,7.75,7.86,11.28
					c4.32,5.19,9.63,10.12,16.71,10.41C101.87,117.68,103.38,116.42,101.86,116.36L101.86,116.36z"/>
			</g>
		</g>
		<g>
			<g>
				<path d="M103.56,128.92c5.48-5.33,10.8-10.5,14.48-17.28c3.54-6.55,7.39-13.63,8.84-20.97c0.18-0.92-1.91-0.29-2.17,0.16
					c-0.08,0.14-0.16,0.28-0.25,0.42c-0.52,0.9,1.72,0.65,2.1,0.01c0.08-0.14,0.16-0.28,0.25-0.42c-0.72,0.05-1.45,0.11-2.17,0.16
					c-1.42,7.21-5.2,14.18-8.69,20.63c-3.6,6.65-8.82,11.74-14.19,16.96C100.82,129.49,103.03,129.44,103.56,128.92L103.56,128.92z"
					/>
			</g>
		</g>
		<g>
			<g>
				<path d="M104.83,143.7c-3.58-2.35-7.47-3.96-10.97-6.49c-3.4-2.46-6.77-4.99-9.97-7.69c-6.27-5.28-12.48-12.37-14.54-20.5
					c-0.2-0.77-2.44-0.16-2.24,0.64c2.08,8.2,8.39,15.45,14.7,20.77c3.38,2.85,6.94,5.52,10.54,8.1c3.4,2.43,7.24,4,10.71,6.28
					C103.67,145.22,105.73,144.29,104.83,143.7L104.83,143.7z"/>
			</g>
		</g>
		<g>
			<g>
				<path d="M106.3,152.46c-0.06,0.08-0.11,0.15-0.17,0.23c-0.66,0.91,1.49,0.47,1.75,0.33c3.37-1.8,6.23-5.83,9.06-8.42
					c3.58-3.28,6.72-6.68,9.53-10.64c5.82-8.18,10.34-16.58,14.24-25.83c0.29-0.69-1.93-0.41-2.25,0.32
					c-3.68,8.74-7.9,16.67-13.34,24.43c-2.68,3.81-5.57,7.28-8.99,10.46c-1.67,1.55-3.4,3.05-5.03,4.65
					c-1.47,1.44-2.79,3.41-4.63,4.39c0.58,0.11,1.17,0.22,1.75,0.33c0.06-0.08,0.11-0.15,0.17-0.23
					C108.99,151.65,106.74,151.86,106.3,152.46L106.3,152.46z"/>
			</g>
		</g>
		<g>
			<g>
				<path d="M122.35,31.84c-2.27-0.51-2.54-4.64-2.28-6.44c0.1-0.72,0.3-1.45,0.57-2.13c0.25-0.66,0.58-1.28,0.97-1.87
					c0.39-1,1.09-1.28,2.09-0.85c1.1-0.28,1.78,0.15,2.02,1.28c0.21,0.47,0.36,0.97,0.44,1.48c0.2,1.19,0.03,2.28-0.49,3.36
					c-0.94,1.98-2.68,4.12-4.92,4.69c-1.36,0.34-1.03,1.46,0.32,1.12c3.14-0.79,5.92-3.55,7.06-6.55c1.06-2.79-0.26-7.5-3.81-7.33
					c-3.11,0.15-5.11,2.6-6.06,5.36c-0.96,2.79-0.91,8.31,2.73,9.13C121.71,33.25,123.62,32.13,122.35,31.84L122.35,31.84z"/>
			</g>
		</g>
		<g>
			<g>
				<path d="M81.17,43.47c-2.75,0.1-5.07-0.14-6.86-2.48c-1.08-1.41-2.14-4.01-1.89-5.82c0.18-1.34,0.41-1.17,1.92-1.35
					c1.6-0.19,1.46-0.4,2.25,0.53c0.7,0.83,1.25,1.8,1.66,2.81c0.8,1.99,0.94,4.54,0.99,6.66c0.01,0.69,2.26,0.23,2.24-0.64
					c0-0.04,0-0.09,0-0.13c-0.01-0.69-2.26-0.23-2.24,0.64c0,0.04,0,0.09,0,0.13c0.75-0.21,1.49-0.43,2.24-0.64
					c-0.07-3.53-0.55-8.02-3.48-10.46c-1.82-1.52-4.96-1.06-6.64,0.48c-2.14,1.96-1.03,5.48,0.17,7.66
					c1.92,3.46,5.16,4.04,8.79,3.91C81.16,44.73,82.68,43.42,81.17,43.47L81.17,43.47z"/>
			</g>
		</g>
		<g>
			<g>
				<path d="M65.59,56.05c-2.81,0.65-5.03-1.36-6.41-3.6c-0.67-1.08-2.58-5.09-1.61-6.35c0.93-0.06,1.85-0.13,2.78-0.19
					c0.19,0.2,0.38,0.41,0.57,0.61c0.52,0.45,0.87,1.26,1.2,1.83c0.5,0.87,0.87,1.7,1.17,2.66c0.59,1.89,0.75,4.25,1.98,5.86
					c0.46,0.6,2.63-0.2,2.07-0.92c-1.32-1.72-1.33-4.46-2.09-6.45c-0.58-1.53-1.61-3.41-2.84-4.51c-1.85-1.66-5.16-1.62-6.67,0.54
					c-1.66,2.39,0.43,6.77,1.95,8.73c1.03,1.32,2.38,2.44,3.97,3.02c1.51,0.56,2.71,0.23,4.24-0.12
					C67.29,56.85,66.95,55.73,65.59,56.05L65.59,56.05z"/>
			</g>
		</g>
		<g>
			<g>
				<path d="M117.39,69.68c-1.15-1.4-1.96-2.46-2.35-4.31c-0.2-0.96-0.54-2.25-0.33-3.23c0.29-1.36,2.03-2.93,3.19-1.72
					c2.17,2.27,0.33,8.02-2.02,9.41c-0.89,0.53-0.13,1,0.56,0.95c0.11-0.01,0.22-0.02,0.32-0.02c1.11-0.08,1.84-1.37,0.28-1.25
					c-0.11,0.01-0.22,0.02-0.32,0.02c0.19,0.32,0.37,0.63,0.56,0.95c3.13-1.85,6.35-11.25,0.7-12.04c-2.34-0.33-4.79,1.51-5.43,3.73
					c-0.89,3.05,0.94,6.24,2.75,8.44C115.8,71.19,117.96,70.37,117.39,69.68L117.39,69.68z"/>
			</g>
		</g>
		<g>
			<g>
				<path d="M127.4,90.8c-1.43-0.78-2.22-2.4-2.57-3.92c-0.23-1.02-0.36-2.16-0.22-3.2c0.17-1.2,1.15-4.45,3.44-2.34
					c2.62,2.41,0.3,8.18-2.05,9.88c-1.23,0.89,0.7,1.15,1.41,0.64c2.21-1.6,4.02-4.89,3.92-7.64c-0.09-2.6-1.23-4.94-4.13-4.8
					c-6.29,0.3-6.3,9.91-1.58,12.5C126.27,92.28,128.33,91.31,127.4,90.8L127.4,90.8z"/>
			</g>
		</g>
		<g>
			<g>
				<path d="M71.93,83.92c-3,0.7-5.78-0.08-7.64-2.63c-0.66-0.91-3.81-7.59,0.03-6.42c1.98,0.6,3.42,3.62,4.24,5.29
					c0.73,1.49,1.19,3.68,2.49,4.78c0.61,0.51,2.69-0.4,2.07-0.92c-1.38-1.16-1.85-3.65-2.71-5.23c-0.96-1.75-1.95-3.31-3.57-4.52
					c-1.8-1.34-4.39-1.82-5.94,0.25c-1.91,2.54,0.11,6.53,1.99,8.5c1.17,1.22,2.9,2.13,4.54,2.51c1.76,0.42,3.13-0.11,4.82-0.5
					C73.62,84.72,73.29,83.61,71.93,83.92L71.93,83.92z"/>
			</g>
		</g>
		<g>
			<g>
				<path d="M69.14,109.46c-2.48,0.43-4.47,0.88-6.33-1.22c-1.51-1.71-2.17-4.59-0.88-6.59c2.54-3.91,4.74,1.2,5.23,3.22
					c0.6,2.51,0.95,5.06,0.52,7.62c0.72-0.21,1.44-0.41,2.16-0.62c-0.05-0.06-0.1-0.11-0.14-0.17c-0.5-0.59-2.65,0.24-2.07,0.92
					c0.05,0.06,0.1,0.11,0.14,0.17c0.44,0.52,2.05,0.03,2.16-0.62c0.58-3.52,0.19-8.59-1.99-11.57c-1.92-2.62-5.37-2.03-7.39,0.14
					c-2.19,2.37-1.95,6.05,0.18,8.42c2.36,2.62,5.06,2.09,8.12,1.56C69.93,110.53,70.69,109.19,69.14,109.46L69.14,109.46z"/>
			</g>
		</g>
		<g>
			<g>
				<path d="M95.69,26.32c-2.67-0.45-4.2-3.12-5.12-5.43c-0.62-1.57-2.23-5.53-1.22-7.06c2.3-3.49,3.82,0.25,4.18,1.72
					c0.31,1.3,0.35,2.71,0.43,4.04c0.1,1.74,0.3,3.62-0.06,5.35c-0.23,1.1-0.8,2.02-1,3.11c0.75-0.11,1.5-0.22,2.25-0.32
					c0-0.06,0-0.11,0-0.17c0.02-0.92-2.23-0.42-2.25,0.32c0,0.06,0,0.11,0,0.17c-0.02,0.93,2.11,0.41,2.25-0.32
					c0.42-2.31,1.18-4.08,1.14-6.54c-0.04-2.26,0.02-4.83-0.71-6.99c-0.97-2.88-3.72-4.22-6.44-2.58
					c-5.49,3.33-0.05,15.09,5.21,15.96C95.06,27.69,96.97,26.53,95.69,26.32L95.69,26.32z"/>
			</g>
		</g>
		<path class="st3" d="M141.97,98.24c-2.23-0.87-4.38,7.62-2.64,9.34c1.57-0.8,3.33-2.41,3.78-3.77
			C143.58,102.41,143.68,98.91,141.97,98.24z"/>
		<path class="st3" d="M125.69,21.92c-0.24-1.13-0.91-1.55-2.02-1.28c-1-0.43-1.7-0.14-2.09,0.85c-0.4,0.58-0.72,1.21-0.97,1.87
			c-0.26,0.68-0.46,1.41-0.57,2.13c-0.2,1.45-0.07,4.42,1.18,5.78c2-0.74,3.55-2.69,4.42-4.51c0.51-1.08,0.69-2.17,0.49-3.36
			C126.05,22.89,125.9,22.4,125.69,21.92z"/>
		<path class="st3" d="M78.23,37.26c-0.4-1-0.96-1.98-1.66-2.81c-0.79-0.93-0.64-0.72-2.25-0.53c-1.52,0.18-1.74,0.01-1.92,1.35
			c-0.25,1.81,0.81,4.41,1.89,5.82c1.35,1.76,3,2.33,4.91,2.46C79.15,41.5,78.98,39.14,78.23,37.26z"/>
		<path class="st3" d="M63.27,51.1c-0.3-0.96-0.67-1.79-1.17-2.66c-0.33-0.58-0.69-1.39-1.2-1.83c-0.19-0.2-0.38-0.41-0.57-0.61
			c-0.93,0.06-1.85,0.13-2.78,0.19c-0.97,1.26,0.95,5.27,1.61,6.35c1.25,2.03,3.2,3.86,5.64,3.71C63.97,54.7,63.78,52.73,63.27,51.1
			z"/>
		<path class="st3" d="M114.69,62.23c-0.21,0.98,0.13,2.27,0.33,3.23c0.32,1.54,0.94,2.53,1.8,3.63c1.84-2.12,2.93-6.63,1.07-8.58
			C116.73,59.3,114.99,60.86,114.69,62.23z"/>
		<path class="st3" d="M124.59,83.78c-0.14,1.04-0.02,2.18,0.22,3.2c0.3,1.32,0.93,2.7,2.02,3.55c1.99-2.27,3.5-6.97,1.2-9.09
			C125.74,79.33,124.76,82.58,124.59,83.78z"/>
		<path class="st3" d="M68.54,80.26c-0.82-1.67-2.26-4.69-4.24-5.29c-3.84-1.17-0.69,5.52-0.03,6.42c1.53,2.1,3.68,2.97,6.07,2.84
			C69.54,83.06,69.12,81.44,68.54,80.26z"/>
		<path class="st3" d="M67.14,104.96c-0.48-2.02-2.69-7.13-5.23-3.22c-1.29,1.99-0.64,4.88,0.88,6.59c1.53,1.73,3.14,1.74,5.05,1.44
			C67.8,108.16,67.52,106.55,67.14,104.96z"/>
		<path class="st3" d="M93.94,19.68c-0.08-1.33-0.11-2.74-0.43-4.04c-0.36-1.47-1.88-5.21-4.18-1.72c-1.01,1.52,0.6,5.48,1.22,7.06
			c0.66,1.68,1.66,3.54,3.17,4.61c0.06-0.18,0.12-0.37,0.16-0.56C94.24,23.31,94.04,21.42,93.94,19.68z"/>
	</g>
</g>
</svg>
